<?xml version="1.0" encoding="utf-8"?>
<!-- Generator: Adobe Illustrator 16.0.3, SVG Export Plug-In . SVG Version: 6.00 Build 0)  -->
<!DOCTYPE svg PUBLIC "-//W3C//DTD SVG 1.1//EN" "http://www.w3.org/Graphics/SVG/1.1/DTD/svg11.dtd">
<svg version="1.1" id="Layer_1" xmlns="http://www.w3.org/2000/svg" xmlns:xlink="http://www.w3.org/1999/xlink" x="0px" y="0px"
	 width="48.539px" height="42.139px" viewBox="0 0 48.539 42.139" enable-background="new 0 0 48.539 42.139" xml:space="preserve">
<g>
	<path fill="#C3C3C3" d="M11.202,23.411c-2.382,0-4.319,1.938-4.319,4.318c0,2.382,1.938,4.318,4.319,4.318
		c2.381,0,4.318-1.938,4.318-4.318C15.521,25.349,13.583,23.411,11.202,23.411z M11.202,30.049c-1.279,0-2.319-1.04-2.319-2.318
		s1.041-2.318,2.319-2.318c1.278,0,2.318,1.04,2.318,2.318C13.521,29.009,12.48,30.049,11.202,30.049z"/>
	<path fill="#C3C3C3" d="M36.837,23.411c-2.381,0-4.317,1.938-4.317,4.318c0,2.382,1.938,4.318,4.317,4.318
		c2.383,0,4.32-1.938,4.32-4.318C41.158,25.349,39.22,23.411,36.837,23.411z M36.837,30.049c-1.277,0-2.317-1.04-2.317-2.318
		s1.04-2.318,2.317-2.318c1.279,0,2.32,1.04,2.32,2.318S38.117,30.049,36.837,30.049z"/>
	<path fill="#C3C3C3" d="M21.323,6.553h5.408c0.552,0,1-0.447,1-1c0-0.554-0.448-1-1-1h-5.408c-0.552,0-1,0.446-1,1
		C20.323,6.106,20.771,6.553,21.323,6.553z"/>
	<path fill="#C3C3C3" d="M46.311,12.83H41.9c-0.176,0-0.332,0.059-0.477,0.137l-1.862-7.405C39.062,2.793,37.098,0,33.839,0h-9.301
		H24h-9.301C11.44,0,9.477,2.793,8.977,5.561l-1.863,7.405c-0.144-0.078-0.3-0.137-0.476-0.137h-4.41C1,12.83,0,13.83,0,15.059
		v1.063c0,1.196,0.947,2.176,2.131,2.228l0.329,0.057c-0.286,0.882-0.43,1.823-0.43,2.813l-0.615,6.979c0,0-0.115,5.158-0.002,6.872
		c0.091,1.375,0.725,5.464,0.725,5.464c0.469,1.75,1.497,1.602,3.257,1.602l3.056-0.133c1.76,0,2.689-0.508,2.689-2.267
		l-0.757-4.415c0,0,10.324-1.191,13.887-1.24c3.563,0.049,13.888,1.24,13.888,1.24l-0.759,4.415c0,1.759,0.931,2.267,2.688,2.267
		l3.057,0.133c1.76,0,2.788,0.148,3.257-1.602c0,0,0.636-4.083,0.728-5.456c0.113-1.716-0.004-6.88-0.004-6.88l-0.615-6.979
		c0-0.989-0.146-1.932-0.43-2.813l0.328-0.057c1.184-0.052,2.131-1.03,2.131-2.228v-1.063C48.539,13.83,47.539,12.83,46.311,12.83z
		 M10.93,5.982C11.271,4.109,12.45,2,14.699,2H24h0.538h9.301c2.248,0,3.429,2.109,3.769,3.982l2.129,8.474
		c-0.083,2.049-2.393,3.622-4.385,3.622H24.538H24H13.187c-1.992,0-4.302-1.573-4.386-3.622L10.93,5.982z M8.176,40.494
		l-3.382,0.134c-0.657,0-0.93-0.59-0.93-1.246l-0.261-3.284l5.129-0.563l0.636,4.085C9.367,40.275,8.833,40.494,8.176,40.494z
		 M44.673,39.382c0,0.656-0.272,1.246-0.93,1.246l-3.382-0.134c-0.657,0-1.19-0.219-1.19-0.875l0.636-4.085l5.129,0.563
		L44.673,39.382z M46.539,16.123c0,0.185-0.219,0.213-0.396,0.243l-1.633,0.279c-0.313,0.054-0.584,0.253-0.727,0.538
		s-0.141,0.62,0.004,0.902c0.484,0.945,0.721,1.971,0.726,3.22l0.614,6.979v5.793c0,0-14.813-1.866-20.588-1.993v-0.006
		c-0.084,0-0.179,0.002-0.269,0.003c-0.09-0.001-0.185-0.003-0.269-0.003v0.006c-5.775,0.127-20.588,1.993-20.588,1.993v-5.793
		l0.615-6.979c0.004-1.249,0.24-2.273,0.724-3.22c0.146-0.282,0.147-0.617,0.005-0.902c-0.143-0.285-0.412-0.484-0.726-0.538
		l-1.633-0.279C2.217,16.336,2,16.307,2,16.123v-1.063c0-0.126,0.103-0.229,0.228-0.229h4.41c0.067,0,0.126-0.024,0.19-0.038
		c0.291,3.055,3.484,5.286,6.359,5.286H24h0.538h10.813c2.875,0,6.068-2.231,6.359-5.286c0.063,0.014,0.121,0.038,0.188,0.038h4.41
		c0.125,0,0.228,0.104,0.228,0.229v1.063H46.539z"/>
	<path fill="#C3C3C3" d="M18.207,29.565c-0.809,0.743,0.396,1.942,1.203,1.203c2.61-2.396,7.034-2.664,9.716-0.216
		c0.81,0.736,2.016-0.463,1.203-1.203C26.944,26.261,21.52,26.524,18.207,29.565z"/>
</g>
</svg>
