<?xml version="1.0" encoding="utf-8"?>
<!-- Generator: Adobe Illustrator 16.0.0, SVG Export Plug-In . SVG Version: 6.00 Build 0)  -->
<!DOCTYPE svg PUBLIC "-//W3C//DTD SVG 1.1//EN" "http://www.w3.org/Graphics/SVG/1.1/DTD/svg11.dtd">
<svg version="1.1" id="Layer_1" xmlns="http://www.w3.org/2000/svg" xmlns:xlink="http://www.w3.org/1999/xlink" x="0px" y="0px"
	 width="261.055px" height="232px" viewBox="0 0 261.055 232" enable-background="new 0 0 261.055 232" xml:space="preserve">
<circle fill="#D4D6DB" cx="145.055" cy="116" r="116"/>
<path fill="#F1A41A" d="M239.055,167h-239c0,0-1.561-52.484,12-56c27-7,227-12,227-12V167z"/>
<path fill="#B17B12" d="M0.162,153c-0.284,8.037-0.107,14-0.107,14h239v-14H0.162z"/>
<g>
	<path fill="#1A1A1A" d="M85.939,167.878c0.485,22.71,19.289,40.725,41.994,40.237c22.708-0.489,40.723-19.292,40.236-41.998
		c-0.489-22.708-19.291-40.721-41.996-40.233C103.468,126.37,85.453,145.172,85.939,167.878"/>
	<g>
		<defs>
			<path id="SVGID_1_" d="M126.481,140.276c-14.758,0.316-26.465,12.535-26.149,27.293c0.318,14.758,12.536,26.464,27.294,26.151
				c14.758-0.318,26.465-12.536,26.147-27.295c-0.309-14.562-12.212-26.155-26.707-26.155
				C126.872,140.271,126.678,140.272,126.481,140.276"/>
		</defs>
		<clipPath id="SVGID_2_">
			<use xlink:href="#SVGID_1_"  overflow="visible"/>
		</clipPath>
		
			<radialGradient id="SVGID_3_" cx="-769.0376" cy="668.1797" r="2.0105" gradientTransform="matrix(-13.2932 0.2844 -0.2844 -13.2932 -9905.8877 9267.9893)" gradientUnits="userSpaceOnUse">
			<stop  offset="0" style="stop-color:#5F6062"/>
			<stop  offset="0.003" style="stop-color:#5F6062"/>
			<stop  offset="1" style="stop-color:#58595B"/>
		</radialGradient>
		<polygon clip-path="url(#SVGID_2_)" fill="url(#SVGID_3_)" points="154.065,139.114 98.868,140.296 100.042,195.188 
			155.241,194.009 		"/>
	</g>
	<path fill="#CCCCCC" d="M102.576,167.522c0.289,13.52,11.483,24.247,25.003,23.954c13.519-0.288,24.245-11.483,23.954-25.002
		c-0.289-13.521-11.483-24.245-25.003-23.956C113.01,142.809,102.286,154.004,102.576,167.522"/>
	<path fill="#CFCFCF" d="M110.381,167.355c0.196,9.209,7.822,16.515,17.029,16.314c9.21-0.194,16.515-7.82,16.318-17.028
		c-0.196-9.209-7.82-16.515-17.031-16.316C117.487,150.521,110.183,158.147,110.381,167.355"/>
	<g opacity="0.6">
		<g>
			<defs>
				<rect id="SVGID_4_" x="116.637" y="156.589" width="20.826" height="20.819"/>
			</defs>
			<clipPath id="SVGID_5_">
				<use xlink:href="#SVGID_4_"  overflow="visible"/>
			</clipPath>
			<path clip-path="url(#SVGID_5_)" fill="#999999" d="M116.646,167.221c0.122,5.747,4.883,10.31,10.63,10.184
				c5.75-0.122,10.308-4.882,10.187-10.63c-0.124-5.745-4.885-10.308-10.632-10.184
				C121.083,156.715,116.525,161.473,116.646,167.221"/>
		</g>
	</g>
</g>
<circle fill="none" cx="145.055" cy="116" r="116"/>
<path fill="#F2F2F2" d="M1.35,136.788c12.731-0.12,24.033-1.817,29.705-6.564c3.005-2.514,10-14.224,10-14.224H6.66
	C3.934,120.919,2.31,128.735,1.35,136.788z"/>
<g>
	<defs>
		<circle id="SVGID_6_" cx="145.055" cy="116" r="116"/>
	</defs>
	<clipPath id="SVGID_7_">
		<use xlink:href="#SVGID_6_"  overflow="visible"/>
	</clipPath>
	<g clip-path="url(#SVGID_7_)">
		<path fill="#F1A41A" d="M261.055,167h-261c0,0-1.561-52.484,12-56c27-7,249-12,249-12V167z"/>
		<path fill="#B17B12" d="M0.162,153c-0.284,8.037-0.107,14-0.107,14h261v-14H0.162z"/>
		<g>
			<path fill="#1A1A1A" d="M85.939,167.878c0.485,22.71,19.289,40.725,41.994,40.237c22.708-0.489,40.723-19.292,40.236-41.998
				c-0.489-22.708-19.291-40.721-41.996-40.233C103.468,126.37,85.453,145.172,85.939,167.878"/>
			<g>
				<defs>
					<path id="SVGID_8_" d="M126.481,140.276c-14.758,0.316-26.465,12.535-26.149,27.293c0.318,14.758,12.536,26.464,27.294,26.151
						c14.758-0.318,26.465-12.536,26.147-27.295c-0.309-14.562-12.212-26.155-26.707-26.155
						C126.872,140.271,126.678,140.272,126.481,140.276"/>
				</defs>
				<clipPath id="SVGID_9_">
					<use xlink:href="#SVGID_8_"  overflow="visible"/>
				</clipPath>
				
					<radialGradient id="SVGID_10_" cx="-769.0376" cy="668.1797" r="2.0105" gradientTransform="matrix(-13.2932 0.2844 -0.2844 -13.2932 -9905.8877 9267.9893)" gradientUnits="userSpaceOnUse">
					<stop  offset="0" style="stop-color:#5F6062"/>
					<stop  offset="0.003" style="stop-color:#5F6062"/>
					<stop  offset="1" style="stop-color:#58595B"/>
				</radialGradient>
				<polygon clip-path="url(#SVGID_9_)" fill="url(#SVGID_10_)" points="154.065,139.114 98.868,140.296 100.042,195.188 
					155.241,194.009 				"/>
			</g>
			<path fill="#CCCCCC" d="M102.576,167.522c0.289,13.52,11.483,24.247,25.003,23.954c13.519-0.288,24.245-11.483,23.954-25.002
				c-0.289-13.521-11.483-24.245-25.003-23.956C113.01,142.809,102.286,154.004,102.576,167.522"/>
			<path fill="#CFCFCF" d="M110.381,167.355c0.196,9.209,7.822,16.515,17.029,16.314c9.21-0.194,16.515-7.82,16.318-17.028
				c-0.196-9.209-7.82-16.515-17.031-16.316C117.487,150.521,110.183,158.147,110.381,167.355"/>
			<g opacity="0.6">
				<g>
					<defs>
						<rect id="SVGID_11_" x="116.637" y="156.589" width="20.826" height="20.819"/>
					</defs>
					<clipPath id="SVGID_12_">
						<use xlink:href="#SVGID_11_"  overflow="visible"/>
					</clipPath>
					<path clip-path="url(#SVGID_12_)" fill="#999999" d="M116.646,167.221c0.122,5.747,4.883,10.31,10.63,10.184
						c5.75-0.122,10.308-4.882,10.187-10.63c-0.124-5.745-4.885-10.308-10.632-10.184
						C121.083,156.715,116.525,161.473,116.646,167.221"/>
				</g>
			</g>
		</g>
		<polygon fill="#F2F2F2" points="279.055,38 183.055,38 117.055,104 279.055,104 		"/>
		<path d="M160.055,85.359c-7.959,0.266-14.334,6.784-14.334,14.808s6.375,14.542,14.334,14.808V85.359z"/>
		<path fill="#F1A41A" d="M257.055,28c0,0-44,0.334-62,4c-3.92,0.799-12,6-12,6h78L257.055,28z"/>
		<path opacity="0.5" fill="#D4D6DB" d="M241.055,83c0-6.627-5.373-12-12-12s-12,5.373-12,12v21h24V83z"/>
	</g>
</g>
<g>
	<path fill="#FFFFFF" d="M45.545,48.072c0,0.547,0.26,1.063,0.702,1.385c0.44,0.324,1.01,0.42,1.532,0.255l45.473-14.285
		l-4.008,19.975c-0.022,0.11-0.034,0.224-0.034,0.336c-0.001,0.936,0.363,1.819,1.026,2.48c0.662,0.664,1.544,1.028,2.481,1.028
		h2.992c0.938,0,1.817-0.364,2.481-1.026c0.616-0.616,0.974-1.423,1.021-2.282l4.149-20.685c0.01-0.05,0.012-0.101,0.017-0.15
		l6.887,1.394c0.504,0.104,1.029-0.027,1.429-0.354c0.043-0.037,0.086-0.074,0.127-0.114c0.32-0.32,0.503-0.758,0.503-1.216
		l0-15.302c0-0.516-0.23-1.005-0.63-1.329c-0.399-0.328-0.925-0.459-1.428-0.355l-8.032,1.627h-7.149L47.779,4.591
		c-0.522-0.163-1.091-0.068-1.532,0.256c-0.443,0.322-0.704,0.837-0.702,1.386V48.072z"/>
	<g>
		<path fill="#29ABE2" d="M99.958,22.891l-0.002,8.519l-0.032,0.001c-0.013-0.001-0.026-0.004-0.041-0.004l-2.989,0.002
			c-0.012,0-0.02,0.002-0.032,0.002l-0.303-0.001l0-8.519H99.958z"/>
		<polygon fill="#29ABE2" points="103.395,31.598 103.395,22.724 108.884,21.613 108.884,32.711 		"/>
		<path fill="#29ABE2" d="M92.667,55.807l4.125-20.555c0.022-0.112,0.035-0.229,0.034-0.343l3.032-0.062l0.077,0.001l-4.123,20.554
			c-0.024,0.112-0.036,0.229-0.036,0.343l-0.019,0.044c-0.022,0.02-0.041,0.02-0.05,0.02L92.667,55.807z"/>
		<polygon fill="#29ABE2" points="48.985,45.729 48.984,8.574 93.12,22.442 93.122,31.862 		"/>
	</g>
	<path fill="#29ABE2" d="M22.982,27.615c0-7.267,2.927-14.01,8.269-19.007c0.692-0.65,1.781-0.613,2.429,0.08
		c0.649,0.694,0.637,1.823-0.081,2.43c-4.63,4.378-7.18,10.194-7.18,16.497c0,6.304,2.55,12.162,7.18,16.498
		c0.694,0.65,0.73,1.737,0.081,2.429c-0.014,0.016-0.026,0.029-0.04,0.043c-0.653,0.652-1.711,0.673-2.389,0.038
		C25.918,41.629,22.982,34.88,22.982,27.615z"/>
	<path fill="#29ABE2" d="M39.596,37.896c-0.026,0.027-0.05,0.056-0.078,0.083c-0.635,0.634-1.662,0.677-2.348,0.075
		c-3.016-2.645-4.746-6.449-4.745-10.439c0-3.988,1.72-7.787,4.745-10.439c0.713-0.625,1.8-0.554,2.425,0.16
		c0.627,0.716,0.542,1.801-0.158,2.425c-2.272,1.989-3.575,4.854-3.575,7.854c0,3,1.303,5.862,3.575,7.855
		C40.15,36.096,40.222,37.183,39.596,37.896z"/>
</g>
<path fill="#F2F2F2" d="M1.35,136.788c12.731-0.12,24.033-1.817,29.705-6.564c3.005-2.514,10-14.224,10-14.224H6.66
	C3.934,120.919,2.31,128.735,1.35,136.788z"/>
</svg>
